<?xml version="1.0" encoding="UTF-8"?>
<svg width="1200" height="400" viewBox="0 0 1200 400" fill="none" xmlns="http://www.w3.org/2000/svg">
  <style>
    .brand { font-family: -apple-system,BlinkMacSystemFont,"Segoe UI",Roboto,Inter,Arial,sans-serif; }
    .title { font-weight: 700; font-size: 96px; }
    .tagline { font-weight: 400; font-size: 32px; fill: #111111; opacity: 0.9; }
  </style>
  <!-- Icon on left -->
  <g transform="translate(40,20) scale(0.7)">
    <path d="M256 40
             C 164 40 96 116 96 208
             C 96 292 168 348 256 472
             C 344 348 416 292 416 208
             C 416 116 348 40 256 40 Z" fill="#167E7E"/>
    <circle cx="206" cy="178" r="26" fill="#FFFFFF"/>
    <circle cx="306" cy="178" r="26" fill="#FFFFFF"/>
    <rect x="154" y="206" width="104" height="108" rx="22" fill="#FFFFFF"/>
    <rect x="254" y="206" width="104" height="108" rx="22" fill="#FFFFFF"/>
    <circle cx="236" cy="236" r="22" fill="#167E7E"/>
    <circle cx="276" cy="236" r="22" fill="#167E7E"/>
    <circle cx="236" cy="234" r="20" fill="#FFFFFF"/>
    <circle cx="276" cy="234" r="20" fill="#FFFFFF"/>
    <rect x="214" y="256" width="44" height="112" rx="16" fill="#FFFFFF"/>
    <rect x="254" y="256" width="44" height="112" rx="16" fill="#FFFFFF"/>
    <rect x="234" y="364" width="4" height="36" fill="#FFFFFF"/>
    <rect x="274" y="364" width="4" height="36" fill="#FFFFFF"/>
  </g>
  <!-- Wordmark -->
  <g class="brand" transform="translate(380,140)">
    <text class="title" x="0" y="0" fill="#111111">Family </text>
    <!-- 'O' in teal, rest of 'utings' in black -->
    <text class="title" x="410" y="0" fill="#167E7E">O</text>
    <text class="title" x="470" y="0" fill="#111111">utings</text>
    <text class="tagline" x="0" y="80">Only kid-friendly events, all in one place.</text>
  </g>
</svg>
